<svg xmlns="http://www.w3.org/2000/svg" viewBox="0 0 219 221" width="219" height="221">
	<style>
		tspan { white-space:pre }
		.shp0 { fill: #ffffff } 
	</style>
	<g >
		<path fill-rule="evenodd" class="shp0" d="M142.6 23.5L144.2 27.8L148.8 26.3C154.6 24.4 170.9 24.2 176.9 25.9C189.2 29.4 200.9 37.8 207.6 47.9C224.4 73 217.6 107 192.6 123.2C189.3 125.3 184.9 127.5 182.8 128.2C180.6 128.8 178.5 130.1 178 131C177.3 132.3 153.8 196 145.8 218.2L144.8 221L103.5 221C65 221 62.1 220.9 61.6 219.2C61.4 218.3 60.6 214.8 60 211.5C57.7 199.4 57.1 198 54.5 198C52.4 198 49 195.7 49 194.4C49 192.6 51.4 190 53 190C55.3 190 55.4 189.3 53.9 181.7C52.9 176.6 52.4 176 50.3 176C46.9 176 44 174.2 44 172.2C44 169.7 46 168 48.8 168C50.5 168 51 167.6 50.7 166.2C50.4 165.3 49.6 162.2 49 159.3L47.8 154.1L43.3 153.8C35.3 153.3 34.6 146.9 42.4 146.2L46.2 145.9L45.5 141.7C43.9 132.2 43 130.9 36.5 128.6C20.9 123 9 110.5 3.4 94C0.6 85.7 0.8 69.6 3.9 61C8.5 47.9 18.4 36.3 30 30.5C43.1 24 55.3 22.7 70 26.5C72.3 27 72.8 26.6 74.8 22.5C79.6 12.7 90.4 4.2 101 2.1C117.3 -1.3 137 8.9 142.6 23.5ZM101.5 9.9C96.2 11.3 90.4 14.8 86.8 18.8C82.2 23.9 80.9 26.3 79.4 32.5C78.8 35.2 77.9 37.4 77.4 37.3C76.9 37.2 73.8 36.1 70.6 35C48.9 27.2 24.9 36.4 14.4 56.5C10 64.9 8.6 71.6 9.3 81.8C9.7 89.1 10.3 91.4 13.9 98.5C20.1 111.1 31.7 120.2 44.9 123.1L49.8 124.1L51 130.3C51.6 133.7 52.6 138.6 53.2 141.3L54.2 146L82 146C106 146 110.1 146.2 111.4 147.6C113.4 149.5 113.4 150.5 111.4 152.4C110.1 153.8 106.1 154 82.8 154L55.8 154L56.5 157.3C56.9 159 57.6 162.2 58.1 164.2L59.1 168L88.3 168C118.7 168 120 168.2 120 172.2C120 175.6 116.7 176 88.6 176C66.3 176 61 176.3 61 177.3C61 178.1 61.5 181.2 62.1 184.3L63.3 190L93.9 190.2L124.5 190.5L124.8 192.9C125.5 197.7 123.9 198 93.2 198C66.7 198 64.9 198.1 65.4 199.7C65.6 200.7 66.4 204.1 67 207.2L68.1 213L139.6 213L155.9 168.1C171.8 124.4 172.4 123.2 175.2 122.6C184 120.8 196 112.2 201.9 103.4C207.3 95.3 209.3 87.2 208.8 76.2C208.2 64.3 205.8 57.7 199.3 49.5C186 33.1 163.4 27.5 144.7 36C139.2 38.5 138 38.5 138 35.7C138 27.3 129.7 15.8 120.8 12C115.2 9.6 106.3 8.6 101.5 9.9Z" />
	</g>
</svg>