<?xml version="1.0" standalone="no"?>
<!DOCTYPE svg PUBLIC "-//W3C//DTD SVG 20010904//EN"
 "http://www.w3.org/TR/2001/REC-SVG-20010904/DTD/svg10.dtd">
<svg version="1.0" xmlns="http://www.w3.org/2000/svg"
 width="960.000000pt" height="960.000000pt" viewBox="0 0 960.000000 960.000000"
 preserveAspectRatio="xMidYMid meet">

<g transform="translate(0.000000,960.000000) scale(0.100000,-0.100000)"
fill="#000000" stroke="none">
<path d="M0 4800 l0 -4800 4800 0 4800 0 0 4800 0 4800 -4800 0 -4800 0 0
-4800z m9580 0 l0 -4780 -4780 0 -4780 0 0 4780 0 4780 4780 0 4780 0 0 -4780z"/>
<path d="M4800 8379 c-106 -21 -214 -106 -262 -204 -20 -41 -25 -45 -48 -40
-147 38 -269 25 -400 -40 -116 -58 -215 -174 -261 -305 -31 -86 -33 -247 -5
-330 56 -165 175 -290 331 -346 65 -23 74 -36 90 -131 l7 -42 -38 -3 c-78 -7
-71 -71 9 -76 l45 -3 12 -52 c6 -29 14 -60 17 -69 3 -14 -2 -18 -19 -18 -28 0
-48 -17 -48 -42 0 -20 29 -38 63 -38 21 0 26 -6 36 -57 15 -76 14 -83 -9 -83
-16 0 -40 -26 -40 -44 0 -13 34 -36 55 -36 26 0 32 -14 55 -135 6 -33 14 -68
16 -77 5 -17 34 -18 419 -18 l413 0 10 28 c80 222 315 859 322 872 5 9 26 22
48 28 21 7 65 29 98 50 250 162 318 502 150 753 -67 101 -184 185 -307 220
-60 17 -223 15 -281 -4 l-46 -15 -16 43 c-56 146 -253 248 -416 214z m198 -99
c89 -38 172 -153 172 -237 0 -28 12 -28 67 -3 187 85 413 29 546 -135 65 -82
89 -148 95 -267 5 -110 -15 -191 -69 -272 -59 -88 -179 -174 -267 -192 -28 -6
-34 -18 -193 -455 l-163 -449 -357 0 -358 0 -11 58 c-6 31 -14 65 -16 75 -5
16 13 17 278 17 307 0 323 3 316 51 l-3 24 -306 3 -306 2 -12 57 c-6 31 -11
62 -11 70 0 10 53 13 276 13 281 0 314 4 314 38 0 40 -13 42 -317 42 l-292 0
-10 38 c-5 20 -12 52 -16 70 l-7 32 270 0 c233 0 273 2 286 16 9 8 16 19 16
24 0 5 -7 16 -16 24 -13 14 -54 16 -294 16 l-278 0 -10 48 c-6 26 -16 75 -22
109 l-12 62 -49 10 c-132 29 -248 120 -310 246 -36 71 -42 94 -46 167 -7 102
7 169 51 253 105 201 345 293 562 215 32 -11 63 -22 68 -23 5 -1 14 21 20 48
15 62 28 86 74 137 36 40 94 75 147 89 48 13 137 3 193 -21z"/>
<path d="M3410 6949 c-1003 -129 -1841 -361 -2517 -695 -215 -106 -241 -126
-213 -159 19 -23 35 -19 153 44 592 311 1403 556 2282 690 174 27 513 71 544
71 6 0 15 9 21 20 8 15 6 24 -10 40 -11 11 -23 20 -27 19 -5 0 -109 -14 -233
-30z"/>
<path d="M6053 6969 c-7 -7 -13 -21 -13 -30 0 -29 22 -36 140 -48 190 -20 585
-78 786 -116 728 -138 1349 -335 1867 -593 118 -58 218 -102 230 -100 25 3 34
32 17 53 -16 20 -169 100 -330 175 -649 300 -1482 523 -2370 634 -304 38 -313
39 -327 25z"/>
<path d="M5747 6558 c-20 -11 -22 -41 -4 -57 7 -6 94 -17 193 -26 788 -67
1396 -185 1971 -381 68 -23 84 -26 97 -15 30 25 19 50 -28 71 -96 41 -371 124
-581 175 -433 107 -928 184 -1425 225 -74 6 -151 12 -171 14 -20 2 -43 -1 -52
-6z"/>
<path d="M3600 6534 c-513 -57 -874 -118 -1249 -211 -181 -44 -529 -151 -583
-179 -31 -16 -39 -60 -13 -70 9 -4 104 23 213 59 467 154 1170 288 1752 333
104 8 122 16 118 52 -3 25 -6 27 -58 29 -30 0 -111 -5 -180 -13z"/>
<path d="M1650 4275 l0 -795 105 0 105 0 0 360 0 360 372 2 371 3 -1 90 -1 90
-370 3 -371 2 0 250 0 250 430 0 430 0 0 90 0 90 -535 0 -535 0 0 -795z"/>
<path d="M5320 4960 l0 -110 100 0 100 0 0 110 0 110 -100 0 -100 0 0 -110z"/>
<path d="M5810 4275 l0 -796 98 3 97 3 3 793 2 792 -100 0 -100 0 0 -795z"/>
<path d="M6310 4960 l0 -111 98 3 97 3 2 108 1 107 -99 0 -99 0 0 -110z"/>
<path d="M6930 4976 l-85 -52 -5 -145 -5 -144 -70 -1 -70 -2 0 -73 0 -74 70
-1 70 0 5 -430 c5 -469 5 -469 66 -526 16 -15 49 -34 73 -43 44 -15 181 -21
240 -9 36 7 37 14 20 111 l-11 63 -69 0 c-60 0 -73 3 -94 24 -14 14 -26 41
-30 67 -3 24 -5 202 -3 394 l3 350 95 0 95 0 0 74 0 74 -95 1 -95 1 -3 198
c-1 108 -6 197 -10 196 -4 0 -45 -24 -92 -53z"/>
<path d="M3300 4645 c-178 -36 -272 -104 -329 -235 -10 -25 -22 -59 -25 -76
l-7 -31 53 -7 c29 -3 72 -9 94 -12 l42 -6 17 52 c23 68 85 134 145 151 25 8
89 13 145 13 193 -1 275 -70 275 -231 0 -52 0 -52 -37 -63 -39 -11 -171 -34
-391 -69 -228 -35 -340 -124 -372 -292 -20 -103 20 -221 98 -290 67 -58 137
-81 267 -86 162 -7 245 18 383 113 35 24 65 44 67 44 3 0 5 -8 5 -18 0 -10 7
-42 15 -70 l16 -52 99 0 c55 0 100 1 100 3 0 1 -10 30 -22 62 -21 57 -22 82
-29 455 -4 251 -11 408 -18 432 -35 112 -134 188 -278 213 -97 18 -227 17
-313 0z m408 -688 c-9 -166 -63 -254 -194 -314 -69 -31 -191 -42 -261 -23
-134 38 -184 183 -96 281 43 47 82 60 283 95 85 14 180 34 210 44 30 10 57 18
59 19 2 1 2 -45 -1 -102z"/>
<path d="M4550 4644 c-196 -42 -321 -168 -376 -379 -24 -95 -25 -321 -1 -419
47 -187 178 -325 354 -371 74 -19 213 -19 288 1 151 39 271 159 320 321 24 79
25 79 -67 91 -110 16 -105 17 -113 -25 -10 -57 -48 -134 -83 -169 -49 -50 -97
-68 -190 -72 -77 -4 -88 -2 -148 28 -119 58 -172 164 -181 366 -12 236 49 384
185 451 49 24 69 28 142 28 75 0 91 -3 133 -28 53 -31 100 -89 118 -145 6 -20
15 -41 19 -45 4 -5 47 -3 95 4 l87 12 -5 35 c-10 59 -62 155 -111 203 -113
111 -284 153 -466 113z"/>
<path d="M5324 4631 c-2 -2 -4 -262 -4 -578 l0 -573 100 0 100 0 -2 576 -3
577 -93 1 c-52 0 -96 -1 -98 -3z"/>
<path d="M6314 4631 c-2 -2 -4 -262 -4 -578 l0 -574 98 3 97 3 0 573 0 574
-93 1 c-52 1 -96 0 -98 -2z"/>
<path d="M7323 4627 c-3 -4 93 -265 212 -580 l216 -572 -31 -82 c-36 -94 -63
-137 -103 -167 -25 -18 -42 -21 -127 -21 l-98 1 4 -31 c3 -16 8 -55 12 -85 l7
-55 60 -12 c109 -23 200 3 273 78 52 52 118 185 190 379 418 1126 422 1135
422 1146 0 5 -41 9 -91 8 -67 -1 -94 -5 -99 -15 -17 -31 -280 -760 -299 -828
-11 -41 -22 -76 -24 -78 -2 -2 -12 25 -22 59 -17 65 -292 835 -304 853 -7 12
-191 14 -198 2z"/>
<path d="M4282 2876 c-160 -52 -238 -267 -162 -445 96 -221 417 -206 497 23
28 80 24 206 -8 276 -30 64 -72 110 -125 135 -49 23 -148 29 -202 11z m154
-65 c110 -50 153 -221 92 -363 -63 -147 -249 -153 -322 -10 -49 97 -40 241 21
320 29 38 93 72 138 72 17 0 49 -9 71 -19z"/>
<path d="M5206 2875 c-59 -21 -108 -66 -141 -130 -25 -49 -31 -73 -33 -145 -4
-102 7 -152 51 -216 87 -131 298 -145 409 -27 73 77 100 244 58 356 -43 114
-131 177 -245 176 -33 0 -77 -6 -99 -14z m170 -65 c96 -47 139 -191 99 -328
-28 -94 -87 -142 -175 -142 -125 0 -197 100 -188 264 4 72 9 92 34 133 52 85
144 114 230 73z"/>
<path d="M3370 2580 l0 -300 40 0 40 0 0 135 0 134 113 3 112 3 3 28 3 27
-115 0 -116 0 0 99 c0 116 -10 108 138 107 l102 -1 0 33 0 32 -160 0 -160 0 0
-300z"/>
<path d="M6011 2873 l-23 -5 4 -291 4 -292 59 -7 c197 -23 356 47 405 180 25
66 29 173 10 242 -18 65 -98 143 -169 164 -52 15 -228 21 -290 9z m260 -68
c89 -32 132 -104 132 -220 -1 -163 -85 -244 -250 -245 l-83 0 0 233 c0 129 3
237 7 240 12 13 151 7 194 -8z"/>
<path d="M422 2148 c-38 -38 -11 -57 253 -188 832 -410 1945 -686 3165 -784
672 -55 1441 -54 2085 0 1257 105 2357 380 3185 796 226 113 242 123 238 150
-7 45 -32 45 -115 -1 -208 -114 -502 -245 -778 -346 -2367 -865 -5942 -718
-7884 326 -117 62 -130 66 -149 47z"/>
<path d="M1582 2148 c-16 -16 -15 -43 1 -55 19 -15 231 -88 388 -133 582 -168
1253 -273 2114 -330 264 -18 1050 -24 1350 -11 1024 45 1874 179 2552 402 193
64 223 82 202 122 -14 24 -28 22 -194 -37 -611 -214 -1497 -359 -2480 -406
-271 -13 -1000 -13 -1270 0 -761 36 -1431 126 -2011 269 -180 45 -457 127
-553 166 -74 28 -82 30 -99 13z"/>
</g>
</svg>
