<svg xmlns="http://www.w3.org/2000/svg" viewBox="0 0 513 513" width="513" height="513">
	<style>
		tspan { white-space:pre }
		.shp0 { fill: #ffffff } 
	</style>
	<g >
		<g >
			<path fill-rule="evenodd" class="shp0" d="M512 457.73C512 487.66 487.66 512 457.73 512C441.63 512 426.47 504.95 416.18 492.64C386.43 457.06 298.46 352.15 256.01 304.6C214.86 350.66 131.5 449.98 95.86 492.59C85.56 504.93 70.39 512 54.27 512C24.35 512 0 487.66 0 457.73C0 441.61 7.07 426.45 19.39 416.15C60.87 381.47 157.27 300.56 204.56 258.52C181.16 243.43 158.39 234.67 149.33 234.67C134.16 234.67 84.72 183.1 2.38 81.38C-1.06 77.14 -0.74 70.98 3.13 67.13L67.13 3.13C70.99 -0.74 77.16 -1.05 81.38 2.38C183.09 84.72 234.67 134.16 234.67 149.33C234.67 157.26 241.4 175.72 253.15 195.87C255.71 186.29 256 177.85 256 170.67C256 146.33 413.16 33.47 452.47 9.08C464.65 1.52 479.39 1.18 491.91 8.14C504.49 15.14 512 27.94 512 42.38C512 53.92 506.98 64.77 498.22 72.16C480.95 86.74 442.84 123.86 402.49 163.16C367.25 197.49 331.02 232.76 305.14 256.48C352.94 299.12 457.19 386.53 492.64 416.17C504.95 426.47 512 441.63 512 457.73ZM267.6 217.55C272.87 224.57 278.55 231.47 284.88 237.79C286.05 238.97 287.7 240.53 289.31 242.04C315 218.57 351.8 182.76 387.61 147.88C428.23 108.3 466.61 70.93 484.46 55.86C488.41 52.52 490.67 47.62 490.67 42.38C490.67 35.79 487.25 29.96 481.53 26.77C475.89 23.64 469.22 23.83 463.72 27.21C398.69 67.55 288.56 155.02 277.34 172.54C277.31 183.56 276.35 199.19 267.6 217.55ZM241.54 288.78C240.24 287.41 238.83 285.91 237.79 284.88C232.91 279.99 227.67 275.52 222.33 271.26C176.18 312.53 75.7 396.87 33.08 432.52C25.62 438.75 21.34 447.94 21.34 457.73C21.34 475.9 36.11 490.67 54.27 490.67C64.05 490.67 73.25 486.39 79.49 478.91C115.63 435.71 200.65 334.43 241.54 288.78ZM490.67 457.73C490.67 447.95 486.4 438.77 478.95 432.53C424.83 387.28 296.1 279.18 269.79 252.88C237.48 220.56 213.34 171.56 213.34 149.33C208.7 138.5 140.82 78.33 75.41 25.01L68.42 32L167.55 131.13C171.71 135.29 171.71 142.04 167.55 146.21C165.46 148.29 162.73 149.33 160 149.33C157.27 149.33 154.54 148.29 152.46 146.21L53.34 47.08L47.09 53.33L146.21 152.46C150.38 156.63 150.38 163.38 146.21 167.54C144.13 169.63 141.4 170.67 138.67 170.67C135.94 170.67 133.21 169.63 131.13 167.54L32 68.42L25.01 75.41C78.34 140.81 138.57 208.71 151.14 213.59C151.24 213.59 151.36 213.59 151.46 213.59C172.08 213.59 220.73 237.65 252.88 269.79C279.18 296.1 387.28 424.82 432.54 478.95C438.77 486.4 447.95 490.67 457.73 490.67C475.9 490.67 490.67 475.9 490.67 457.73Z" />
		</g>
	</g>
	<g >
	</g>
	<g >
	</g>
	<g >
	</g>
	<g >
	</g>
	<g >
	</g>
	<g >
	</g>
	<g >
	</g>
	<g >
	</g>
	<g >
	</g>
	<g >
	</g>
	<g >
	</g>
	<g >
	</g>
	<g >
	</g>
	<g >
	</g>
	<g >
	</g>
</svg>