<svg xmlns="http://www.w3.org/2000/svg" viewBox="0 0 480 480" width="480" height="480">
	<style>
		tspan { white-space:pre }
		.shp0 { fill: #ffffff } 
	</style>
	<path id="Layer" fill-rule="evenodd" class="shp0" d="M435.57 306.52C441.29 309.28 446.03 313.7 449.18 319.2C451.97 324.07 453.44 329.59 453.44 335.2C453.51 346.62 447.44 357.2 437.55 362.91L283.95 458.01C277.63 461.93 270.34 464 262.89 464L134.18 464C129.14 464 124.16 463.05 119.48 461.2L96 451.93L96 480L16 480L16 304L96 304L96 329.89L116.38 317.68C122.59 313.96 129.69 312 136.93 312L187.8 312C191.29 312 194.77 312.46 198.14 313.36L294.55 339.15C304.55 341.9 312.62 349.28 316.24 358.99L405.52 307.47C412.14 303.66 419.92 302.36 427.43 303.82C430.25 304.33 433 305.24 435.57 306.52ZM80 320L32 320L32 464L80 464L80 320ZM429.31 349.2C434.37 346.36 437.48 341 437.46 335.2C437.45 332.36 436.7 329.58 435.29 327.12C433.73 324.41 431.38 322.24 428.56 320.89C427.28 320.25 425.91 319.8 424.5 319.54C420.75 318.8 416.86 319.43 413.54 321.33L317.44 376.85C317.34 377.34 317.34 377.86 317.2 378.34C313.43 392.34 300.75 402.06 286.27 402.08C281.9 401.69 277.58 400.93 273.35 399.8L189.96 377.49L194.09 362.03L277.21 384.27C280.59 385.04 285.29 386 286.48 386.08C293.64 385.99 299.87 381.16 301.73 374.24C301.95 373.26 302.1 372.27 302.2 371.27C302.26 370.36 302.26 369.44 302.2 368.52C301.52 361.89 296.83 356.36 290.4 354.6L194 328.8C191.98 328.26 189.89 327.99 187.8 328L136.93 328C132.59 328 128.32 329.18 124.6 331.41L96 348.54L96 434.72L125.37 446.32C128.18 447.43 131.16 448 134.18 448L262.89 448C267.36 448 271.73 446.75 275.53 444.4L429.31 349.2Z" />
	<path id="Layer" class="shp0" d="M304 216C282.32 216 264 205.01 264 192L248 192C248 212.48 268.53 228.86 296 231.57L296 256L312 256L312 231.57C339.47 228.86 360 212.48 360 192C360 169.6 335.4 152 304 152C282.32 152 264 141.01 264 128C264 114.99 282.32 104 304 104C325.68 104 344 114.99 344 128L360 128C360 107.52 339.47 91.14 312 88.43L312 64L296 64L296 88.43C268.53 91.14 248 107.52 248 128C248 150.4 272.6 168 304 168C325.68 168 344 178.99 344 192C344 205.01 325.68 216 304 216Z" />
	<path id="Layer" fill-rule="evenodd" class="shp0" d="M144 160C144 71.63 215.63 0 304 0C392.37 0 464 71.63 464 160C464 248.37 392.37 320 304 320C215.68 319.9 144.1 248.32 144 160ZM160 160C160 239.53 224.47 304 304 304C383.53 304 448 239.53 448 160C448 80.47 383.53 16 304 16C224.51 16.09 160.09 80.51 160 160Z" />
	<path id="Layer" fill-rule="evenodd" class="shp0" d="M176 160C176 89.31 233.31 32 304 32C374.69 32 432 89.31 432 160C432 230.69 374.69 288 304 288C233.34 287.92 176.08 230.66 176 160ZM192 160C192 221.86 242.14 272 304 272C365.86 272 416 221.86 416 160C416 98.14 365.86 48 304 48C242.17 48.07 192.07 98.17 192 160Z" />
</svg>