<?xml version="1.0" standalone="no"?>
<!DOCTYPE svg PUBLIC "-//W3C//DTD SVG 20010904//EN"
 "http://www.w3.org/TR/2001/REC-SVG-20010904/DTD/svg10.dtd">
<svg version="1.0" xmlns="http://www.w3.org/2000/svg"
 width="219.000000pt" height="221.000000pt" viewBox="0 0 219.000000 221.000000"
 preserveAspectRatio="xMidYMid meet">

<g transform="translate(0.000000,221.000000) scale(0.100000,-0.100000)"
fill="#000000" stroke="none">
<path d="M1010 2189 c-106 -21 -214 -106 -262 -204 -20 -41 -25 -45 -48 -40
-147 38 -269 25 -400 -40 -116 -58 -215 -174 -261 -305 -31 -86 -33 -247 -5
-330 56 -165 175 -290 331 -346 65 -23 74 -36 90 -131 l7 -42 -38 -3 c-78 -7
-71 -71 9 -76 l45 -3 12 -52 c6 -29 14 -60 17 -69 3 -14 -2 -18 -19 -18 -28 0
-48 -17 -48 -42 0 -20 29 -38 63 -38 21 0 26 -6 36 -57 15 -76 14 -83 -9 -83
-16 0 -40 -26 -40 -44 0 -13 34 -36 55 -36 26 0 32 -14 55 -135 6 -33 14 -68
16 -77 5 -17 34 -18 419 -18 l413 0 10 28 c80 222 315 859 322 872 5 9 26 22
48 28 21 7 65 29 98 50 250 162 318 502 150 753 -67 101 -184 185 -307 220
-60 17 -223 15 -281 -4 l-46 -15 -16 43 c-56 146 -253 248 -416 214z m198 -99
c89 -38 172 -153 172 -237 0 -28 12 -28 67 -3 187 85 413 29 546 -135 65 -82
89 -148 95 -267 5 -110 -15 -191 -69 -272 -59 -88 -179 -174 -267 -192 -28 -6
-34 -18 -193 -455 l-163 -449 -357 0 -358 0 -11 58 c-6 31 -14 65 -16 75 -5
16 13 17 278 17 307 0 323 3 316 51 l-3 24 -306 3 -306 2 -12 57 c-6 31 -11
62 -11 70 0 10 53 13 276 13 281 0 314 4 314 38 0 40 -13 42 -317 42 l-292 0
-10 38 c-5 20 -12 52 -16 69 l-7 33 270 0 c233 0 273 2 286 16 20 19 20 29 0
48 -13 14 -54 16 -294 16 l-278 0 -10 47 c-6 27 -16 76 -22 110 l-12 62 -49
10 c-132 29 -248 120 -310 246 -36 71 -42 94 -46 167 -7 102 7 169 51 253 105
201 345 293 562 215 32 -11 63 -22 68 -23 5 -1 14 21 20 48 15 62 28 86 74
137 36 40 94 75 147 89 48 13 137 3 193 -21z"/>
</g>
</svg>
